<?xml version="1.0" encoding="UTF-8"?>
<svg width="283px" height="83px" viewBox="0 0 283 83" version="1.1" xmlns="http://www.w3.org/2000/svg" xmlns:xlink="http://www.w3.org/1999/xlink">
    <!-- Generator: Sketch 58 (84663) - https://sketch.com -->
    <title>Etalab</title>
    <desc>Created with Sketch.</desc>
    <g id="Page-1" stroke="none" stroke-width="1" fill="none" fill-rule="evenodd">
        <g id="Etalab" fill-rule="nonzero">
            <path d="M17.69,48.329 C26.022,48.329 28.504,47.879 29.405,47.201 C29.739,46.975 30.081,46.525 30.081,45.061 C30.081,41.908 27.94,37.962 21.408,37.962 C14.76,37.962 9.014,44.048 8.903,47.765 C8.903,47.992 8.903,48.329 9.693,48.329 L17.691,48.329 L17.69,48.329 Z M7.664,54.749 C7.664,66.129 14.308,75.814 26.36,75.814 C30.08,75.814 33.237,74.687 36.724,70.295 C37.852,69.957 38.642,70.632 38.754,71.645 C35.04,79.309 26.924,82.125 21.07,82.125 C13.744,82.125 8.002,78.972 4.733,74.687 C1.358,70.295 0,65.001 0,60.045 C0,46.19 9.129,34.585 22.647,34.585 C32.332,34.585 38.642,41.23 38.642,47.992 C38.642,49.567 38.416,50.467 38.19,50.918 C37.852,51.595 36.28,51.706 31.546,51.706 L10.706,51.706 C7.776,51.706 7.664,51.932 7.664,54.749 Z M60.944,40.893 C59.034,40.893 58.922,41.23 58.922,43.597 L58.922,64.664 C58.922,71.196 59.712,77.169 67.146,77.169 C68.1856156,77.1649257 69.2160217,76.973884 70.188,76.605 C71.201,76.263 72.666,75.028 73,75.028 C73.901,75.028 74.358,76.263 74.128,76.942 C72.098,79.309 68.048,82.125 62.298,82.125 C52.608,82.125 50.583,76.716 50.583,69.957 L50.583,44.161 C50.583,41.119 50.476,40.893 48.224,40.893 L45.064,40.893 C44.388,40.44 44.277,39.202 44.726,38.526 C47.99,37.514 50.813,36.05 51.934,35.034 C53.398,33.685 55.539,30.644 56.667,28.389 C57.234,28.162 58.584,28.162 59.034,28.952 L59.034,34.022 C59.034,36.05 59.148,36.162 61.059,36.162 L73.564,36.162 C74.914,37.178 74.687,40.22 73.674,40.892 L60.944,40.892 M94.97,77.054 C97.218,77.054 100.72,75.367 101.84,74.239 C103.19,72.885 103.306,71.309 103.306,68.945 L103.532,62.302 C103.532,61.059 103.08,60.837 102.404,60.837 C101.729,60.837 99.811,61.285 97.782,61.963 C91.139,64.213 87.87,65.9 87.87,70.296 C87.87,72.214 89.22,77.054 94.97,77.054 L94.97,77.054 Z M101.952,57.231 C103.643,56.667 103.754,55.649 103.87,53.963 L103.98,48.78 C104.092,44.609 102.742,38.978 95.753,38.978 C92.604,38.978 88.771,40.556 88.546,44.049 C88.434,45.854 88.323,47.202 87.426,47.879 C85.73,49.232 82.692,50.019 81,50.019 C79.988,50.019 79.42,49.457 79.42,48.443 C79.42,42.585 92.151,34.586 100.375,34.586 C108.485,34.586 112.428,39.32 112.09,47.766 L111.415,67.366 C111.188,72.551 112.205,77.17 116.597,77.17 C117.576026,77.1596491 118.539923,76.9271376 119.416,76.49 C119.973,76.153 120.544,75.704 120.882,75.704 C121.327,75.704 121.672,76.379 121.672,77.17 C121.672,77.729 117.725,82.126 112.205,82.126 C109.496,82.126 106.793,81.113 104.882,78.627 C104.43,77.957 103.754,77.054 103.08,77.054 C102.289,77.054 100.939,78.067 98.684,79.31 C96.209,80.66 93.731,82.126 90.574,82.126 C87.307,82.126 84.602,81.22 82.692,79.532 C80.548,77.618 79.198,74.799 79.198,71.646 C79.198,67.25 81.338,64.665 88.546,62.071 L101.952,57.231 M139.018,67.929 C139.018,76.042 139.24,77.169 143.299,77.729 L145.999,78.067 C146.785,78.627 146.563,80.545 145.78,80.882 C142.139093,80.6552114 138.491962,80.5428226 134.844,80.545 C130.794,80.545 127.414,80.66 124.031,80.882 C123.244,80.545 123.018,78.627 123.808,78.067 L126.401,77.729 C130.568,77.169 130.681,76.042 130.681,67.929 L130.681,17.011 C130.681,10.367 130.568,9.691 127.191,7.661 L126.061,6.984 C125.495,6.646 125.495,5.07 126.061,4.734 C128.879,3.833 134.169,2.142 138.228,0.001 C138.68,0.001 139.129,0.226 139.355,0.676 C139.24,4.056 139.018,9.69 139.018,14.646 L139.018,67.928 M168.308,77.053 C170.555,77.053 174.05,75.366 175.179,74.238 C176.529,72.884 176.643,71.308 176.643,68.944 L176.869,62.301 C176.869,61.058 176.416,60.836 175.734,60.836 C175.063,60.836 173.149,61.284 171.119,61.962 C164.475,64.212 161.208,65.899 161.208,70.295 C161.208,72.213 162.561,77.053 168.308,77.053 Z M175.289,57.23 C176.98,56.666 177.096,55.648 177.208,53.962 L177.318,48.779 C177.433,44.608 176.079,38.977 169.098,38.977 C165.941,38.977 162.109,40.555 161.886,44.048 C161.771,45.853 161.66,47.201 160.759,47.878 C159.068,49.231 156.029,50.018 154.338,50.018 C153.325,50.018 152.761,49.456 152.761,48.442 C152.761,42.584 165.489,34.585 173.713,34.585 C181.821,34.585 185.764,39.319 185.431,47.765 L184.753,67.365 C184.525,72.55 185.543,77.169 189.938,77.169 C191.059,77.169 192.07,76.827 192.749,76.489 C193.309,76.152 193.874,75.703 194.215,75.703 C194.663,75.703 195.009,76.378 195.009,77.169 C195.009,77.728 191.059,82.125 185.543,82.125 C182.838,82.125 180.129,81.112 178.219,78.626 C177.771,77.956 177.096,77.053 176.416,77.053 C175.63,77.053 174.276,78.066 172.02,79.309 C169.543,80.659 167.069,82.125 163.913,82.125 C160.644,82.125 157.94,81.219 156.029,79.531 C153.889,77.617 152.534,74.798 152.534,71.645 C152.534,67.249 154.679,64.664 161.886,62.07 L175.289,57.23 M210.89,65.223 C210.89,69.171 211.791,72.661 213.705,75.028 C215.623,77.391 218.661,78.745 222.266,78.745 C232.853,78.745 237.023,69.731 237.023,60.045 C237.023,48.442 231.059,39.428 219.9,39.428 C216.525,39.428 213.813,40.22 212.244,41.23 C211.116,42.02 210.89,43.26 210.89,47.654 L210.89,65.224 L210.89,65.223 Z M202.554,17.011 C202.554,10.367 202.443,9.691 199.06,7.661 L197.933,6.984 C197.371,6.646 197.371,5.07 197.933,4.734 C200.525,3.72 205.929,2.254 210.214,0.001 C210.663,0.001 211.116,0.226 211.338,0.676 C211.116,4.618 210.89,9.69 210.89,14.646 L210.89,35.937 C210.89,37.853 211.338,38.3 212.013,38.3 C214.948,36.612 219.451,34.585 224.971,34.585 C237.813,34.585 246.485,44.27 246.485,56.666 C246.485,71.645 235.673,82.125 220.575,82.125 C216.413,82.125 213.255,81.449 211.001,80.659 C208.634,79.984 207.176,79.194 206.268,79.194 C205.367,79.194 204.464,80.099 203.908,80.881 C203.793,80.997 203.682,80.997 203.457,80.997 C202.999,80.997 202.554,80.77 202.327,80.322 C202.443,78.745 202.554,76.605 202.554,70.747 L202.554,17.011" id="Shape" fill="#1980BC"></path>
            <path d="M222.763,16.627 C222.763,18.54 224.016,19.873 225.755,19.873 C226.901,19.873 227.814,19.323 228.535,18.559 L228.535,14.316 C227.873,13.745 227.005,13.3 225.839,13.3 C223.994,13.3 222.763,14.742 222.763,16.627 L222.763,16.627 Z M229.993,21.509 C229.993,22.63 229.698,23.499 229.169,24.136 C228.405,25.068 227.135,25.452 225.731,25.452 C224.311,25.452 223.211,25.009 222.659,24.476 C222.336,24.158 222.191,23.799 222.191,23.438 C222.191,22.823 222.639,22.338 223.25,22.338 C223.779,22.338 224.14,22.738 224.14,23.246 C224.144415,23.4585188 224.079471,23.6666903 223.955,23.839 C224.228,24.012 224.817,24.199 225.731,24.199 C226.621,24.199 227.47,23.968 227.998,23.311 C228.336,22.885 228.535,22.337 228.535,21.571 L228.535,19.811 C227.791,20.575 226.901,21.144 225.524,21.144 C223.169,21.144 221.231,19.278 221.231,16.651 C221.231,14.208 223.02,12.007 225.708,12.007 C226.916,12.007 227.873,12.494 228.596,13.171 L228.596,12.174 L231.459,12.174 L231.459,13.471 L229.993,13.471 L229.993,21.509 M240.58,16.693 C240.58,14.698 239.314,13.279 237.465,13.279 C235.62,13.279 234.348,14.699 234.348,16.693 C234.348,18.708 235.62,20.106 237.465,20.106 C239.314,20.106 240.58,18.708 240.58,16.693 Z M232.82,16.693 C232.82,14.148 234.661,12.007 237.465,12.007 C240.265,12.007 242.11,14.124 242.11,16.693 C242.11,19.261 240.265,21.38 237.465,21.38 C234.646,21.38 232.82,19.278 232.82,16.693 M245.064,20.172 C244.788,19.686 244.639,19.046 244.639,18.325 L244.639,13.471 L243.196,13.471 L243.196,12.174 L246.104,12.174 L246.104,18.048 C246.104,18.558 246.184,18.965 246.353,19.261 C246.633,19.791 247.098,20.022 247.833,20.022 C248.961,20.022 249.959,19.302 250.806,18.431 L250.806,13.471 L249.321,13.471 L249.321,12.174 L252.271,12.174 L252.271,19.937 L253.714,19.937 L253.714,21.209 L250.849,21.209 L250.849,19.535 C250.005,20.533 248.77,21.38 247.474,21.38 C246.287,21.38 245.509,20.935 245.064,20.172 M255.497,13.471 L254.312,13.471 L254.312,12.174 L258.509,12.174 L258.509,13.424 L257.066,13.424 L259.74,19.388 L262.39,13.424 L260.902,13.424 L260.902,12.174 L265.082,12.174 L265.082,13.471 L263.897,13.471 L260.1,21.509 L259.295,21.509 L255.497,13.471 M264.73,20.047 C264.73,19.303 265.284,18.708 266.019,18.708 C266.762,18.708 267.316,19.303 267.316,20.048 C267.316,20.785 266.762,21.38 266.019,21.38 C265.284,21.38 264.73,20.785 264.73,20.047 M273.065,6.832 C272.786,6.896 272.532,7.02 272.367,7.257 C272.041,7.635 271.872,8.25 271.872,9.144 L271.872,12.174 L274.212,12.174 L274.212,13.471 L271.872,13.471 L271.872,19.937 L273.637,19.937 L273.637,21.209 L268.95,21.209 L268.95,19.937 L270.415,19.937 L270.415,13.471 L268.8,13.471 L268.8,12.174 L270.415,12.174 L270.415,9.484 C270.415,8.018 270.672,7.042 271.366,6.344 C271.896,5.831 272.532,5.515 273.426,5.515 C274.404,5.515 275.076,5.983 275.076,6.725 C275.076,7.32 274.676,7.723 274.162,7.723 C273.572,7.723 273.235,7.339 273.065,6.833 M282.356,13.193 C282.356,13.763 281.906,14.273 281.339,14.273 C280.787,14.273 280.404,13.913 280.257,13.513 C279.575,13.705 278.75,14.508 278.307,15.419 L278.307,19.937 L280,19.937 L280,21.209 L275.4,21.209 L275.4,19.937 L276.843,19.937 L276.843,13.471 L275.4,13.471 L275.4,12.174 L278.239,12.174 L278.239,14.232 C278.94,12.979 280.019,12.007 281.001,12.007 C281.891,12.007 282.355,12.579 282.355,13.192" id="Shape" fill="#C83424"></path>
        </g>
    </g>
</svg>